<svg width="1512" height="982" viewBox="0 0 1512 982" fill="none" xmlns="http://www.w3.org/2000/svg">
<rect x="799.453" y="-651" width="12.1188" height="1772.18" transform="rotate(45 799.453 -651)" fill="#1A1A23" fill-opacity="0.7"/>
<rect x="825.161" y="-625.292" width="12.1188" height="1772.18" transform="rotate(45 825.161 -625.292)" fill="#1A1A23" fill-opacity="0.7"/>
<rect x="850.868" y="-599.584" width="12.1188" height="1772.18" transform="rotate(45 850.868 -599.584)" fill="#1A1A23" fill-opacity="0.7"/>
<rect x="876.576" y="-573.876" width="12.1188" height="1772.18" transform="rotate(45 876.576 -573.876)" fill="#1A1A23" fill-opacity="0.7"/>
<rect x="902.284" y="-548.168" width="12.1188" height="1772.18" transform="rotate(45 902.284 -548.168)" fill="#1A1A23" fill-opacity="0.7"/>
<rect x="927.992" y="-522.461" width="12.1188" height="1772.18" transform="rotate(45 927.992 -522.461)" fill="#1A1A23" fill-opacity="0.7"/>
<rect x="953.7" y="-496.753" width="12.1188" height="1772.18" transform="rotate(45 953.7 -496.753)" fill="#1A1A23" fill-opacity="0.7"/>
<rect x="979.408" y="-471.045" width="12.1188" height="1772.18" transform="rotate(45 979.408 -471.045)" fill="#1A1A23" fill-opacity="0.7"/>
<rect x="1005.12" y="-445.337" width="12.1188" height="1772.18" transform="rotate(45 1005.12 -445.337)" fill="#1A1A23" fill-opacity="0.7"/>
<rect x="1030.82" y="-419.629" width="12.1188" height="1772.18" transform="rotate(45 1030.82 -419.629)" fill="#1A1A23" fill-opacity="0.7"/>
<rect x="1056.53" y="-393.921" width="12.1188" height="1772.18" transform="rotate(45 1056.53 -393.921)" fill="#1A1A23" fill-opacity="0.7"/>
<rect x="1082.24" y="-368.213" width="12.1187" height="1772.18" transform="rotate(45 1082.24 -368.213)" fill="#1A1A23" fill-opacity="0.7"/>
<rect x="1107.95" y="-342.505" width="12.1188" height="1772.18" transform="rotate(45 1107.95 -342.505)" fill="#1A1A23" fill-opacity="0.7"/>
<rect x="1133.66" y="-316.798" width="12.1188" height="1772.18" transform="rotate(45 1133.66 -316.798)" fill="#1A1A23" fill-opacity="0.7"/>
<rect x="1159.36" y="-291.09" width="12.1188" height="1772.18" transform="rotate(45 1159.36 -291.09)" fill="#1A1A23" fill-opacity="0.7"/>
<rect x="1185.07" y="-265.382" width="12.1188" height="1772.18" transform="rotate(45 1185.07 -265.382)" fill="#1A1A23" fill-opacity="0.7"/>
<rect x="1210.78" y="-239.674" width="12.1189" height="1772.18" transform="rotate(45 1210.78 -239.674)" fill="#1A1A23" fill-opacity="0.7"/>
<rect x="1236.49" y="-213.966" width="12.1188" height="1772.18" transform="rotate(45 1236.49 -213.966)" fill="#1A1A23" fill-opacity="0.7"/>
<rect x="1262.19" y="-188.258" width="12.1188" height="1772.18" transform="rotate(45 1262.19 -188.258)" fill="#1A1A23" fill-opacity="0.7"/>
<rect x="1287.9" y="-162.55" width="12.1188" height="1772.18" transform="rotate(45 1287.9 -162.55)" fill="#1A1A23" fill-opacity="0.7"/>
<rect x="1313.61" y="-136.842" width="12.1188" height="1772.18" transform="rotate(45 1313.61 -136.842)" fill="#1A1A23" fill-opacity="0.7"/>
<rect x="1339.32" y="-111.135" width="12.1188" height="1772.18" transform="rotate(45 1339.32 -111.135)" fill="#1A1A23" fill-opacity="0.7"/>
<rect x="1365.03" y="-85.4268" width="12.1188" height="1772.18" transform="rotate(45 1365.03 -85.4268)" fill="#1A1A23" fill-opacity="0.7"/>
<rect x="1390.73" y="-59.7188" width="12.1188" height="1772.18" transform="rotate(45 1390.73 -59.7188)" fill="#1A1A23" fill-opacity="0.7"/>
<rect x="1442.15" y="-8.30322" width="12.1188" height="1772.18" transform="rotate(45 1442.15 -8.30322)" fill="#1A1A23" fill-opacity="0.7"/>
<rect x="1416.44" y="-34.011" width="12.1188" height="1772.18" transform="rotate(45 1416.44 -34.011)" fill="#1A1A23" fill-opacity="0.7"/>
<rect x="1467.86" y="17.4048" width="12.1189" height="1772.18" transform="rotate(45 1467.86 17.4048)" fill="#1A1A23" fill-opacity="0.7"/>
<rect x="1493.57" y="43.1128" width="12.1188" height="1772.18" transform="rotate(45 1493.57 43.1128)" fill="#1A1A23" fill-opacity="0.7"/>
<rect x="1519.27" y="68.8206" width="12.1188" height="1772.18" transform="rotate(45 1519.27 68.8206)" fill="#1A1A23" fill-opacity="0.7"/>
<rect x="1544.98" y="94.5286" width="12.1187" height="1772.18" transform="rotate(45 1544.98 94.5286)" fill="#1A1A23" fill-opacity="0.7"/>
<rect x="1570.69" y="120.236" width="12.1187" height="1772.18" transform="rotate(45 1570.69 120.236)" fill="#1A1A23" fill-opacity="0.7"/>
<rect x="1596.4" y="145.944" width="12.119" height="1772.18" transform="rotate(45 1596.4 145.944)" fill="#1A1A23" fill-opacity="0.7"/>
<rect x="1622.1" y="171.652" width="12.1188" height="1772.18" transform="rotate(45 1622.1 171.652)" fill="#1A1A23" fill-opacity="0.7"/>
<rect x="1647.81" y="197.36" width="12.1187" height="1772.18" transform="rotate(45 1647.81 197.36)" fill="#1A1A23" fill-opacity="0.7"/>
<rect x="1673.52" y="223.068" width="12.1187" height="1772.18" transform="rotate(45 1673.52 223.068)" fill="#1A1A23" fill-opacity="0.7"/>
<rect x="1699.23" y="248.776" width="12.1188" height="1772.18" transform="rotate(45 1699.23 248.776)" fill="#1A1A23" fill-opacity="0.7"/>
<rect x="1724.94" y="274.483" width="12.1188" height="1772.18" transform="rotate(45 1724.94 274.483)" fill="#1A1A23" fill-opacity="0.7"/>
<rect x="1750.64" y="300.191" width="12.1188" height="1772.18" transform="rotate(45 1750.64 300.191)" fill="#1A1A23" fill-opacity="0.7"/>
<rect x="1776.35" y="325.899" width="12.1187" height="1772.18" transform="rotate(45 1776.35 325.899)" fill="#1A1A23" fill-opacity="0.7"/>
<rect x="1802.06" y="351.607" width="12.1187" height="1772.18" transform="rotate(45 1802.06 351.607)" fill="#1A1A23" fill-opacity="0.7"/>
<rect x="1827.77" y="377.315" width="12.1188" height="1772.18" transform="rotate(45 1827.77 377.315)" fill="#1A1A23" fill-opacity="0.7"/>
<rect x="1853.48" y="403.023" width="12.119" height="1772.18" transform="rotate(45 1853.48 403.023)" fill="#1A1A23" fill-opacity="0.7"/>
<rect x="1879.18" y="428.731" width="12.1187" height="1772.18" transform="rotate(45 1879.18 428.731)" fill="#1A1A23" fill-opacity="0.7"/>
<rect x="1904.89" y="454.439" width="12.1187" height="1772.18" transform="rotate(45 1904.89 454.439)" fill="#1A1A23" fill-opacity="0.7"/>
<rect x="1930.6" y="480.146" width="12.1188" height="1772.18" transform="rotate(45 1930.6 480.146)" fill="#1A1A23" fill-opacity="0.7"/>
<rect x="1956.31" y="505.854" width="12.119" height="1772.18" transform="rotate(45 1956.31 505.854)" fill="#1A1A23" fill-opacity="0.7"/>
<rect x="1982.02" y="531.562" width="12.1187" height="1772.18" transform="rotate(45 1982.02 531.562)" fill="#1A1A23" fill-opacity="0.7"/>
<rect x="2007.72" y="557.27" width="12.1188" height="1772.18" transform="rotate(45 2007.72 557.27)" fill="#1A1A23" fill-opacity="0.7"/>
<rect x="2033.43" y="582.978" width="12.1187" height="1772.18" transform="rotate(45 2033.43 582.978)" fill="#1A1A23" fill-opacity="0.7"/>
<rect x="-454" y="591.797" width="12.1188" height="1772.18" transform="rotate(-45 -454 591.797)" fill="#1A1A23" fill-opacity="0.7"/>
<rect x="-428.292" y="566.09" width="12.1188" height="1772.18" transform="rotate(-45 -428.292 566.09)" fill="#1A1A23" fill-opacity="0.7"/>
<rect x="-402.584" y="540.382" width="12.1188" height="1772.18" transform="rotate(-45 -402.584 540.382)" fill="#1A1A23" fill-opacity="0.7"/>
<rect x="-376.876" y="514.674" width="12.1188" height="1772.18" transform="rotate(-45 -376.876 514.674)" fill="#1A1A23" fill-opacity="0.7"/>
<rect x="-351.169" y="488.966" width="12.1188" height="1772.18" transform="rotate(-45 -351.169 488.966)" fill="#1A1A23" fill-opacity="0.7"/>
<rect x="-325.461" y="463.258" width="12.1188" height="1772.18" transform="rotate(-45 -325.461 463.258)" fill="#1A1A23" fill-opacity="0.7"/>
<rect x="-299.753" y="437.55" width="12.1188" height="1772.18" transform="rotate(-45 -299.753 437.55)" fill="#1A1A23" fill-opacity="0.7"/>
<rect x="-274.045" y="411.842" width="12.1188" height="1772.18" transform="rotate(-45 -274.045 411.842)" fill="#1A1A23" fill-opacity="0.7"/>
<rect x="-248.337" y="386.134" width="12.1188" height="1772.18" transform="rotate(-45 -248.337 386.134)" fill="#1A1A23" fill-opacity="0.7"/>
<rect x="-222.629" y="360.427" width="12.1188" height="1772.18" transform="rotate(-45 -222.629 360.427)" fill="#1A1A23" fill-opacity="0.7"/>
<rect x="-196.921" y="334.719" width="12.1188" height="1772.18" transform="rotate(-45 -196.921 334.719)" fill="#1A1A23" fill-opacity="0.7"/>
<rect x="-171.213" y="309.011" width="12.1187" height="1772.18" transform="rotate(-45 -171.213 309.011)" fill="#1A1A23" fill-opacity="0.7"/>
<rect x="-145.506" y="283.303" width="12.1188" height="1772.18" transform="rotate(-45 -145.506 283.303)" fill="#1A1A23" fill-opacity="0.7"/>
<rect x="-119.798" y="257.595" width="12.1188" height="1772.18" transform="rotate(-45 -119.798 257.595)" fill="#1A1A23" fill-opacity="0.7"/>
<rect x="-94.0898" y="231.887" width="12.1188" height="1772.18" transform="rotate(-45 -94.0898 231.887)" fill="#1A1A23" fill-opacity="0.7"/>
<rect x="-68.3818" y="206.179" width="12.1188" height="1772.18" transform="rotate(-45 -68.3818 206.179)" fill="#1A1A23" fill-opacity="0.7"/>
<rect x="-42.6738" y="180.471" width="12.1189" height="1772.18" transform="rotate(-45 -42.6738 180.471)" fill="#1A1A23" fill-opacity="0.7"/>
<rect x="-16.9658" y="154.763" width="12.1188" height="1772.18" transform="rotate(-45 -16.9658 154.763)" fill="#1A1A23" fill-opacity="0.7"/>
<rect x="8.74219" y="129.056" width="12.1188" height="1772.18" transform="rotate(-45 8.74219 129.056)" fill="#1A1A23" fill-opacity="0.7"/>
<rect x="34.4497" y="103.348" width="12.1188" height="1772.18" transform="rotate(-45 34.4497 103.348)" fill="#1A1A23" fill-opacity="0.7"/>
<rect x="60.1575" y="77.6399" width="12.1188" height="1772.18" transform="rotate(-45 60.1575 77.6399)" fill="#1A1A23" fill-opacity="0.7"/>
<rect x="85.8652" y="51.9321" width="12.1188" height="1772.18" transform="rotate(-45 85.8652 51.9321)" fill="#1A1A23" fill-opacity="0.7"/>
<rect x="111.573" y="26.2241" width="12.1188" height="1772.18" transform="rotate(-45 111.573 26.2241)" fill="#1A1A23" fill-opacity="0.7"/>
<rect x="137.281" y="0.516357" width="12.1188" height="1772.18" transform="rotate(-45 137.281 0.516357)" fill="#1A1A23" fill-opacity="0.7"/>
<rect x="188.697" y="-50.8994" width="12.1188" height="1772.18" transform="rotate(-45 188.697 -50.8994)" fill="#1A1A23" fill-opacity="0.7"/>
<rect x="162.989" y="-25.1917" width="12.1188" height="1772.18" transform="rotate(-45 162.989 -25.1917)" fill="#1A1A23" fill-opacity="0.7"/>
<rect x="214.405" y="-76.6074" width="12.1189" height="1772.18" transform="rotate(-45 214.405 -76.6074)" fill="#1A1A23" fill-opacity="0.7"/>
<rect x="240.113" y="-102.315" width="12.1188" height="1772.18" transform="rotate(-45 240.113 -102.315)" fill="#1A1A23" fill-opacity="0.7"/>
<rect x="265.821" y="-128.023" width="12.1188" height="1772.18" transform="rotate(-45 265.821 -128.023)" fill="#1A1A23" fill-opacity="0.7"/>
<rect x="291.529" y="-153.731" width="12.1187" height="1772.18" transform="rotate(-45 291.529 -153.731)" fill="#1A1A23" fill-opacity="0.7"/>
<rect x="317.236" y="-179.439" width="12.1187" height="1772.18" transform="rotate(-45 317.236 -179.439)" fill="#1A1A23" fill-opacity="0.7"/>
<rect x="342.944" y="-205.147" width="12.119" height="1772.18" transform="rotate(-45 342.944 -205.147)" fill="#1A1A23" fill-opacity="0.7"/>
<rect x="368.652" y="-230.855" width="12.1188" height="1772.18" transform="rotate(-45 368.652 -230.855)" fill="#1A1A23" fill-opacity="0.7"/>
<rect x="394.36" y="-256.562" width="12.1187" height="1772.18" transform="rotate(-45 394.36 -256.562)" fill="#1A1A23" fill-opacity="0.7"/>
<rect x="420.068" y="-282.27" width="12.1187" height="1772.18" transform="rotate(-45 420.068 -282.27)" fill="#1A1A23" fill-opacity="0.7"/>
<rect x="445.776" y="-307.978" width="12.1188" height="1772.18" transform="rotate(-45 445.776 -307.978)" fill="#1A1A23" fill-opacity="0.7"/>
<rect x="471.483" y="-333.686" width="12.1188" height="1772.18" transform="rotate(-45 471.483 -333.686)" fill="#1A1A23" fill-opacity="0.7"/>
<rect x="497.191" y="-359.394" width="12.1188" height="1772.18" transform="rotate(-45 497.191 -359.394)" fill="#1A1A23" fill-opacity="0.7"/>
<rect x="522.899" y="-385.102" width="12.1187" height="1772.18" transform="rotate(-45 522.899 -385.102)" fill="#1A1A23" fill-opacity="0.7"/>
<rect x="548.607" y="-410.81" width="12.1187" height="1772.18" transform="rotate(-45 548.607 -410.81)" fill="#1A1A23" fill-opacity="0.7"/>
<rect x="574.315" y="-436.518" width="12.1188" height="1772.18" transform="rotate(-45 574.315 -436.518)" fill="#1A1A23" fill-opacity="0.7"/>
<rect x="600.023" y="-462.225" width="12.119" height="1772.18" transform="rotate(-45 600.023 -462.225)" fill="#1A1A23" fill-opacity="0.7"/>
<rect x="625.731" y="-487.933" width="12.1187" height="1772.18" transform="rotate(-45 625.731 -487.933)" fill="#1A1A23" fill-opacity="0.7"/>
<rect x="651.439" y="-513.641" width="12.1187" height="1772.18" transform="rotate(-45 651.439 -513.641)" fill="#1A1A23" fill-opacity="0.7"/>
<rect x="677.146" y="-539.349" width="12.1188" height="1772.18" transform="rotate(-45 677.146 -539.349)" fill="#1A1A23" fill-opacity="0.7"/>
<rect x="702.854" y="-565.057" width="12.119" height="1772.18" transform="rotate(-45 702.854 -565.057)" fill="#1A1A23" fill-opacity="0.7"/>
<rect x="728.562" y="-590.765" width="12.1187" height="1772.18" transform="rotate(-45 728.562 -590.765)" fill="#1A1A23" fill-opacity="0.7"/>
<rect x="754.27" y="-616.473" width="12.1188" height="1772.18" transform="rotate(-45 754.27 -616.473)" fill="#1A1A23" fill-opacity="0.7"/>
<rect x="779.978" y="-642.181" width="12.1187" height="1772.18" transform="rotate(-45 779.978 -642.181)" fill="#1A1A23" fill-opacity="0.7"/>
</svg>
